<mxfile host="app.diagrams.net" modified="2020-12-16T10:08:10.631Z" agent="5.0 (Macintosh; Intel Mac OS X 10_15_7) AppleWebKit/537.36 (KHTML, like Gecko) Chrome/87.0.4280.88 Safari/537.36" etag="cU5uuOJHWBpvOTsicw3B" version="14.0.3" type="github">
  <diagram id="6BgOHTFHgBRa7XXHfq-5" name="Page-1">
    <mxGraphModel dx="5947" dy="4153" grid="1" gridSize="10" guides="1" tooltips="1" connect="1" arrows="1" fold="1" page="1" pageScale="1" pageWidth="827" pageHeight="1169" math="0" shadow="0">
      <root>
        <mxCell id="0" />
        <mxCell id="1" parent="0" />
        <mxCell id="rxVHNWmWw3qq-OFvizci-1" value="" style="endArrow=none;dashed=1;html=1;dashPattern=1 3;strokeWidth=2;strokeColor=#C7C7C7;" parent="1" edge="1">
          <mxGeometry width="50" height="50" relative="1" as="geometry">
            <mxPoint x="340" y="2160" as="sourcePoint" />
            <mxPoint x="330" y="100" as="targetPoint" />
          </mxGeometry>
        </mxCell>
        <mxCell id="rxVHNWmWw3qq-OFvizci-3" value="compiler" style="text;html=1;strokeColor=none;fillColor=none;align=center;verticalAlign=middle;whiteSpace=wrap;rounded=0;" parent="1" vertex="1">
          <mxGeometry x="100" y="70" width="40" height="20" as="geometry" />
        </mxCell>
        <mxCell id="QC7sre-XqN9Exx4dISkb-20" style="edgeStyle=orthogonalEdgeStyle;rounded=0;orthogonalLoop=1;jettySize=auto;html=1;exitX=0.5;exitY=1;exitDx=0;exitDy=0;entryX=0.5;entryY=0;entryDx=0;entryDy=0;strokeColor=#C7C7C7;fontSize=10;" edge="1" parent="1" source="rxVHNWmWw3qq-OFvizci-5" target="rxVHNWmWw3qq-OFvizci-9">
          <mxGeometry relative="1" as="geometry" />
        </mxCell>
        <mxCell id="rxVHNWmWw3qq-OFvizci-5" value="run" style="swimlane;align=left;" parent="1" vertex="1">
          <mxGeometry x="60" y="130" width="120" height="110" as="geometry" />
        </mxCell>
        <mxCell id="rxVHNWmWw3qq-OFvizci-6" value="(hook)beforeRun&lt;br&gt;&amp;nbsp; &amp;nbsp; (hook)run&lt;br&gt;&amp;nbsp; &amp;nbsp; &amp;nbsp; &amp;nbsp; readRecords&lt;br&gt;&amp;nbsp; &amp;nbsp; &amp;nbsp; &amp;nbsp; &amp;nbsp; &amp;nbsp; compile" style="text;html=1;align=left;verticalAlign=middle;resizable=0;points=[];autosize=1;" parent="rxVHNWmWw3qq-OFvizci-5" vertex="1">
          <mxGeometry y="30" width="110" height="60" as="geometry" />
        </mxCell>
        <mxCell id="rxVHNWmWw3qq-OFvizci-9" value="compile" style="swimlane;align=left;" parent="1" vertex="1">
          <mxGeometry x="60" y="290" width="130" height="110" as="geometry" />
        </mxCell>
        <mxCell id="rxVHNWmWw3qq-OFvizci-11" value="&lt;font color=&quot;#666666&quot;&gt;(hook)beforeCompile&lt;br&gt;&lt;/font&gt;&amp;nbsp; &amp;nbsp; (hook)make" style="text;html=1;align=left;verticalAlign=middle;resizable=0;points=[];autosize=1;" parent="rxVHNWmWw3qq-OFvizci-9" vertex="1">
          <mxGeometry y="30" width="130" height="30" as="geometry" />
        </mxCell>
        <mxCell id="QC7sre-XqN9Exx4dISkb-17" value="" style="ellipse;html=1;shape=startState;fillColor=#000000;strokeColor=#ff0000;fontSize=10;align=left;" vertex="1" parent="rxVHNWmWw3qq-OFvizci-9">
          <mxGeometry x="80" y="49" width="10" height="10" as="geometry" />
        </mxCell>
        <mxCell id="rxVHNWmWw3qq-OFvizci-15" value="SingleEntryPlugin" style="swimlane;align=left;fillColor=#f5f5f5;strokeColor=#666666;fontColor=#333333;fontSize=10;" parent="1" vertex="1">
          <mxGeometry x="200" y="334" width="115" height="40" as="geometry" />
        </mxCell>
        <mxCell id="rxVHNWmWw3qq-OFvizci-16" value="compilation.addEntry" style="text;html=1;align=center;verticalAlign=middle;resizable=0;points=[];autosize=1;fontSize=10;" parent="rxVHNWmWw3qq-OFvizci-15" vertex="1">
          <mxGeometry y="20" width="110" height="20" as="geometry" />
        </mxCell>
        <mxCell id="QC7sre-XqN9Exx4dISkb-22" value="" style="ellipse;html=1;shape=startState;fillColor=#000000;strokeColor=#ff0000;fontSize=10;align=left;" vertex="1" parent="rxVHNWmWw3qq-OFvizci-15">
          <mxGeometry x="105" y="25" width="10" height="10" as="geometry" />
        </mxCell>
        <mxCell id="rxVHNWmWw3qq-OFvizci-17" value="compilation" style="text;html=1;strokeColor=none;fillColor=none;align=center;verticalAlign=middle;whiteSpace=wrap;rounded=0;" parent="1" vertex="1">
          <mxGeometry x="430" y="70" width="40" height="20" as="geometry" />
        </mxCell>
        <mxCell id="rxVHNWmWw3qq-OFvizci-18" value="addEntry" style="swimlane;align=left;" parent="1" vertex="1">
          <mxGeometry x="359" y="358" width="120" height="70" as="geometry" />
        </mxCell>
        <mxCell id="rxVHNWmWw3qq-OFvizci-19" value="&lt;font color=&quot;#4d4d4d&quot;&gt;(hook)addEntry&lt;br&gt;&lt;/font&gt;_addModuleChain" style="text;html=1;align=left;verticalAlign=middle;resizable=0;points=[];autosize=1;" parent="rxVHNWmWw3qq-OFvizci-18" vertex="1">
          <mxGeometry y="30" width="110" height="30" as="geometry" />
        </mxCell>
        <mxCell id="rxVHNWmWw3qq-OFvizci-20" value="_addModuleChain" style="swimlane;align=left;" parent="1" vertex="1">
          <mxGeometry x="360" y="464" width="130" height="70" as="geometry" />
        </mxCell>
        <mxCell id="rxVHNWmWw3qq-OFvizci-21" value="moduleFactory.create" style="text;html=1;align=left;verticalAlign=middle;resizable=0;points=[];autosize=1;" parent="rxVHNWmWw3qq-OFvizci-20" vertex="1">
          <mxGeometry y="35" width="130" height="20" as="geometry" />
        </mxCell>
        <mxCell id="rxVHNWmWw3qq-OFvizci-22" value="" style="endArrow=none;dashed=1;html=1;dashPattern=1 3;strokeWidth=2;strokeColor=#C7C7C7;" parent="1" edge="1">
          <mxGeometry width="50" height="50" relative="1" as="geometry">
            <mxPoint x="600" y="1870" as="sourcePoint" />
            <mxPoint x="599.9999999999998" y="90" as="targetPoint" />
          </mxGeometry>
        </mxCell>
        <mxCell id="rxVHNWmWw3qq-OFvizci-23" value="NormalModuleFactory" style="text;html=1;strokeColor=none;fillColor=none;align=center;verticalAlign=middle;whiteSpace=wrap;rounded=0;" parent="1" vertex="1">
          <mxGeometry x="740" y="70" width="40" height="20" as="geometry" />
        </mxCell>
        <mxCell id="rxVHNWmWw3qq-OFvizci-25" value="create" style="swimlane;align=left;" parent="1" vertex="1">
          <mxGeometry x="640" y="500" width="180" height="140" as="geometry" />
        </mxCell>
        <mxCell id="rxVHNWmWw3qq-OFvizci-26" value="&lt;font color=&quot;#4d4d4d&quot;&gt;(hook)beforeResolve&lt;br&gt;&lt;/font&gt;&amp;nbsp; &amp;nbsp; (hook)factory&lt;br&gt;&amp;nbsp; &amp;nbsp; &amp;nbsp; &amp;nbsp; (hook)resolver&lt;br&gt;&amp;nbsp; &amp;nbsp; &amp;nbsp; &amp;nbsp; &amp;nbsp; &amp;nbsp;" style="text;html=1;align=left;verticalAlign=middle;resizable=0;points=[];autosize=1;" parent="rxVHNWmWw3qq-OFvizci-25" vertex="1">
          <mxGeometry y="45" width="130" height="60" as="geometry" />
        </mxCell>
        <mxCell id="rxVHNWmWw3qq-OFvizci-27" value="_addModuleChain&#xa;    moduleFactory.create - callback" style="swimlane;align=left;startSize=30;" parent="1" vertex="1">
          <mxGeometry x="380" y="1230" width="170" height="70" as="geometry" />
        </mxCell>
        <mxCell id="rxVHNWmWw3qq-OFvizci-29" value="buildModule" style="text;html=1;align=center;verticalAlign=middle;resizable=0;points=[];autosize=1;fontSize=10;" parent="rxVHNWmWw3qq-OFvizci-27" vertex="1">
          <mxGeometry y="40" width="70" height="20" as="geometry" />
        </mxCell>
        <mxCell id="rxVHNWmWw3qq-OFvizci-30" value="buildModule" style="swimlane;align=left;startSize=30;" parent="1" vertex="1">
          <mxGeometry x="380" y="1330" width="170" height="80" as="geometry" />
        </mxCell>
        <mxCell id="rxVHNWmWw3qq-OFvizci-31" value="&lt;font color=&quot;#666666&quot;&gt;(hook)buildModule&lt;br&gt;&lt;/font&gt;module.build" style="text;html=1;align=left;verticalAlign=middle;resizable=0;points=[];autosize=1;" parent="rxVHNWmWw3qq-OFvizci-30" vertex="1">
          <mxGeometry y="35" width="110" height="30" as="geometry" />
        </mxCell>
        <mxCell id="rxVHNWmWw3qq-OFvizci-32" value="" style="endArrow=none;dashed=1;html=1;dashPattern=1 3;strokeWidth=2;strokeColor=#C7C7C7;" parent="1" edge="1">
          <mxGeometry width="50" height="50" relative="1" as="geometry">
            <mxPoint x="880" y="2200" as="sourcePoint" />
            <mxPoint x="880" y="80" as="targetPoint" />
          </mxGeometry>
        </mxCell>
        <mxCell id="rxVHNWmWw3qq-OFvizci-33" value="build" style="swimlane;align=left;" parent="1" vertex="1">
          <mxGeometry x="910" y="1457" width="170" height="60" as="geometry" />
        </mxCell>
        <mxCell id="rxVHNWmWw3qq-OFvizci-34" value="doBuild" style="text;html=1;align=left;verticalAlign=middle;resizable=0;points=[];autosize=1;" parent="rxVHNWmWw3qq-OFvizci-33" vertex="1">
          <mxGeometry y="35" width="60" height="20" as="geometry" />
        </mxCell>
        <mxCell id="rxVHNWmWw3qq-OFvizci-35" value="NormalModule" style="text;html=1;strokeColor=none;fillColor=none;align=center;verticalAlign=middle;whiteSpace=wrap;rounded=0;" parent="1" vertex="1">
          <mxGeometry x="970" y="70" width="40" height="20" as="geometry" />
        </mxCell>
        <mxCell id="QC7sre-XqN9Exx4dISkb-7" style="edgeStyle=orthogonalEdgeStyle;rounded=0;orthogonalLoop=1;jettySize=auto;html=1;exitX=0.5;exitY=1;exitDx=0;exitDy=0;strokeColor=#C7C7C7;fontSize=10;" edge="1" parent="1" source="rxVHNWmWw3qq-OFvizci-36">
          <mxGeometry relative="1" as="geometry">
            <mxPoint x="995" y="1657" as="targetPoint" />
            <Array as="points">
              <mxPoint x="995" y="1630" />
              <mxPoint x="995" y="1630" />
            </Array>
          </mxGeometry>
        </mxCell>
        <mxCell id="rxVHNWmWw3qq-OFvizci-36" value="doBuild" style="swimlane;align=left;" parent="1" vertex="1">
          <mxGeometry x="910" y="1547" width="170" height="70" as="geometry" />
        </mxCell>
        <mxCell id="rxVHNWmWw3qq-OFvizci-37" value="runLoaders&lt;br&gt;" style="text;html=1;align=left;verticalAlign=middle;resizable=0;points=[];autosize=1;" parent="rxVHNWmWw3qq-OFvizci-36" vertex="1">
          <mxGeometry y="35" width="80" height="20" as="geometry" />
        </mxCell>
        <mxCell id="rxVHNWmWw3qq-OFvizci-38" value="doBuild&#xa;    runLoaders - callback" style="swimlane;align=left;startSize=40;" parent="1" vertex="1">
          <mxGeometry x="910" y="1658" width="170" height="112" as="geometry" />
        </mxCell>
        <mxCell id="QC7sre-XqN9Exx4dISkb-1" value="" style="endArrow=none;dashed=1;html=1;dashPattern=1 3;strokeWidth=2;strokeColor=#C7C7C7;" edge="1" parent="1">
          <mxGeometry width="50" height="50" relative="1" as="geometry">
            <mxPoint x="1140" y="3293.3333333333335" as="sourcePoint" />
            <mxPoint x="1140" y="80" as="targetPoint" />
          </mxGeometry>
        </mxCell>
        <mxCell id="QC7sre-XqN9Exx4dISkb-2" value="Parser" style="text;html=1;strokeColor=none;fillColor=none;align=center;verticalAlign=middle;whiteSpace=wrap;rounded=0;" vertex="1" parent="1">
          <mxGeometry x="1260" y="70" width="40" height="20" as="geometry" />
        </mxCell>
        <mxCell id="QC7sre-XqN9Exx4dISkb-3" value="parse" style="swimlane;align=left;startSize=30;" vertex="1" parent="1">
          <mxGeometry x="1170" y="1970" width="170" height="150" as="geometry" />
        </mxCell>
        <mxCell id="QC7sre-XqN9Exx4dISkb-4" value="ast=Parser.parse&lt;br&gt;(hook)program&lt;br&gt;detectMode&lt;br&gt;prewalkStatements&lt;br&gt;blockPrewalkStatements&lt;br&gt;walkStatements" style="text;html=1;align=left;verticalAlign=middle;resizable=0;points=[];autosize=1;" vertex="1" parent="QC7sre-XqN9Exx4dISkb-3">
          <mxGeometry y="40" width="150" height="90" as="geometry" />
        </mxCell>
        <mxCell id="QC7sre-XqN9Exx4dISkb-18" value="" style="edgeStyle=orthogonalEdgeStyle;html=1;verticalAlign=bottom;endArrow=open;endSize=8;strokeColor=#ff0000;fontSize=10;entryX=0;entryY=0.25;entryDx=0;entryDy=0;" edge="1" source="QC7sre-XqN9Exx4dISkb-17" parent="1" target="rxVHNWmWw3qq-OFvizci-15">
          <mxGeometry relative="1" as="geometry">
            <mxPoint x="155" y="430" as="targetPoint" />
          </mxGeometry>
        </mxCell>
        <mxCell id="QC7sre-XqN9Exx4dISkb-23" value="" style="edgeStyle=orthogonalEdgeStyle;html=1;verticalAlign=bottom;endArrow=open;endSize=8;strokeColor=#ff0000;fontSize=10;entryX=0.002;entryY=0.083;entryDx=0;entryDy=0;entryPerimeter=0;" edge="1" source="QC7sre-XqN9Exx4dISkb-22" parent="1" target="rxVHNWmWw3qq-OFvizci-18">
          <mxGeometry relative="1" as="geometry">
            <mxPoint x="365" y="364" as="targetPoint" />
          </mxGeometry>
        </mxCell>
        <mxCell id="QC7sre-XqN9Exx4dISkb-24" value="" style="endArrow=classic;html=1;strokeColor=#C7C7C7;fontSize=10;exitX=1.015;exitY=0.56;exitDx=0;exitDy=0;exitPerimeter=0;entryX=-0.018;entryY=0.076;entryDx=0;entryDy=0;entryPerimeter=0;" edge="1" parent="1" source="rxVHNWmWw3qq-OFvizci-21" target="rxVHNWmWw3qq-OFvizci-25">
          <mxGeometry width="50" height="50" relative="1" as="geometry">
            <mxPoint x="330" y="414" as="sourcePoint" />
            <mxPoint x="380" y="364" as="targetPoint" />
          </mxGeometry>
        </mxCell>
        <mxCell id="QC7sre-XqN9Exx4dISkb-25" value="" style="endArrow=classic;html=1;strokeColor=#C7C7C7;fontSize=10;entryX=0.5;entryY=0;entryDx=0;entryDy=0;exitX=0.5;exitY=1;exitDx=0;exitDy=0;" edge="1" parent="1" source="QC7sre-XqN9Exx4dISkb-43" target="rxVHNWmWw3qq-OFvizci-27">
          <mxGeometry width="50" height="50" relative="1" as="geometry">
            <mxPoint x="465" y="1150" as="sourcePoint" />
            <mxPoint x="700" y="1290" as="targetPoint" />
            <Array as="points">
              <mxPoint x="730" y="1200" />
              <mxPoint x="465" y="1200" />
            </Array>
          </mxGeometry>
        </mxCell>
        <mxCell id="QC7sre-XqN9Exx4dISkb-26" value="" style="endArrow=classic;html=1;strokeColor=#C7C7C7;fontSize=10;exitX=0.5;exitY=1;exitDx=0;exitDy=0;entryX=0.5;entryY=0;entryDx=0;entryDy=0;" edge="1" parent="1" source="rxVHNWmWw3qq-OFvizci-27" target="rxVHNWmWw3qq-OFvizci-30">
          <mxGeometry width="50" height="50" relative="1" as="geometry">
            <mxPoint x="650" y="1340" as="sourcePoint" />
            <mxPoint x="700" y="1290" as="targetPoint" />
          </mxGeometry>
        </mxCell>
        <mxCell id="QC7sre-XqN9Exx4dISkb-27" value="" style="endArrow=classic;html=1;strokeColor=#C7C7C7;fontSize=10;entryX=0.5;entryY=0;entryDx=0;entryDy=0;" edge="1" parent="1" target="rxVHNWmWw3qq-OFvizci-33">
          <mxGeometry width="50" height="50" relative="1" as="geometry">
            <mxPoint x="465" y="1410" as="sourcePoint" />
            <mxPoint x="475" y="1340" as="targetPoint" />
            <Array as="points">
              <mxPoint x="465" y="1430" />
              <mxPoint x="995" y="1430" />
            </Array>
          </mxGeometry>
        </mxCell>
        <mxCell id="QC7sre-XqN9Exx4dISkb-30" style="edgeStyle=orthogonalEdgeStyle;rounded=0;orthogonalLoop=1;jettySize=auto;html=1;exitX=0.5;exitY=1;exitDx=0;exitDy=0;strokeColor=#C7C7C7;fontSize=10;" edge="1" parent="1" source="rxVHNWmWw3qq-OFvizci-18">
          <mxGeometry relative="1" as="geometry">
            <mxPoint x="130" y="250" as="sourcePoint" />
            <mxPoint x="419" y="460" as="targetPoint" />
          </mxGeometry>
        </mxCell>
        <mxCell id="QC7sre-XqN9Exx4dISkb-32" value="beforeRun处理了文件系统&lt;br&gt;&lt;div style=&quot;text-align: left&quot;&gt;&lt;span&gt;run做了个判断&lt;/span&gt;&lt;/div&gt;" style="text;html=1;strokeColor=none;fillColor=none;align=center;verticalAlign=middle;whiteSpace=wrap;rounded=0;fontSize=10;" vertex="1" parent="1">
          <mxGeometry x="180" y="160" width="140" height="20" as="geometry" />
        </mxCell>
        <mxCell id="QC7sre-XqN9Exx4dISkb-33" value="&lt;div&gt;&lt;span&gt;传入了入口文件的相关信息&lt;/span&gt;&lt;/div&gt;" style="text;html=1;strokeColor=none;fillColor=none;align=left;verticalAlign=middle;whiteSpace=wrap;rounded=0;fontSize=10;" vertex="1" parent="1">
          <mxGeometry x="479" y="358" width="140" height="20" as="geometry" />
        </mxCell>
        <mxCell id="QC7sre-XqN9Exx4dISkb-34" value="创建入口文件的module" style="text;html=1;strokeColor=none;fillColor=none;align=left;verticalAlign=middle;whiteSpace=wrap;rounded=0;fontSize=10;" vertex="1" parent="1">
          <mxGeometry x="827" y="525" width="140" height="20" as="geometry" />
        </mxCell>
        <mxCell id="QC7sre-XqN9Exx4dISkb-35" value="(hook)resolver" style="swimlane;align=left;" vertex="1" parent="1">
          <mxGeometry x="640" y="680" width="180" height="140" as="geometry" />
        </mxCell>
        <mxCell id="QC7sre-XqN9Exx4dISkb-36" value="normalResolver.resolve&lt;br&gt;&amp;nbsp; &amp;nbsp;&amp;nbsp;" style="text;html=1;align=left;verticalAlign=middle;resizable=0;points=[];autosize=1;" vertex="1" parent="QC7sre-XqN9Exx4dISkb-35">
          <mxGeometry y="40" width="140" height="30" as="geometry" />
        </mxCell>
        <mxCell id="QC7sre-XqN9Exx4dISkb-37" value="获得loader数组&lt;br&gt;解析路径&lt;br&gt;解析配置中的rule字段" style="text;html=1;strokeColor=none;fillColor=none;align=left;verticalAlign=middle;whiteSpace=wrap;rounded=0;fontSize=10;" vertex="1" parent="1">
          <mxGeometry x="827" y="710" width="140" height="20" as="geometry" />
        </mxCell>
        <mxCell id="QC7sre-XqN9Exx4dISkb-38" value="(hook)factory&#xa;    resolver - callback" style="swimlane;align=left;startSize=40;" vertex="1" parent="1">
          <mxGeometry x="640" y="860" width="180" height="150" as="geometry" />
        </mxCell>
        <mxCell id="QC7sre-XqN9Exx4dISkb-39" value="&lt;font color=&quot;#666666&quot;&gt;(hook)afterResolve&lt;br&gt;&amp;nbsp; &amp;nbsp; (hook)createModule&lt;br&gt;&lt;/font&gt;&amp;nbsp; &amp;nbsp; (new)MormalModule&lt;br&gt;&lt;font color=&quot;#666666&quot;&gt;&amp;nbsp; &amp;nbsp; (hook)module&lt;br&gt;&lt;/font&gt;&amp;nbsp; &amp;nbsp;&amp;nbsp;" style="text;html=1;align=left;verticalAlign=middle;resizable=0;points=[];autosize=1;" vertex="1" parent="QC7sre-XqN9Exx4dISkb-38">
          <mxGeometry y="45" width="140" height="80" as="geometry" />
        </mxCell>
        <mxCell id="QC7sre-XqN9Exx4dISkb-40" value="" style="endArrow=classic;html=1;strokeColor=#C7C7C7;fontSize=10;entryX=0.5;entryY=0;entryDx=0;entryDy=0;exitX=0.5;exitY=1;exitDx=0;exitDy=0;" edge="1" parent="1" source="rxVHNWmWw3qq-OFvizci-25" target="QC7sre-XqN9Exx4dISkb-35">
          <mxGeometry width="50" height="50" relative="1" as="geometry">
            <mxPoint x="454.9999999999998" y="620" as="sourcePoint" />
            <mxPoint x="454.9999999999998" y="700" as="targetPoint" />
            <Array as="points" />
          </mxGeometry>
        </mxCell>
        <mxCell id="QC7sre-XqN9Exx4dISkb-42" style="edgeStyle=orthogonalEdgeStyle;rounded=0;orthogonalLoop=1;jettySize=auto;html=1;strokeColor=#C7C7C7;fontSize=10;" edge="1" parent="1" target="QC7sre-XqN9Exx4dISkb-38">
          <mxGeometry relative="1" as="geometry">
            <mxPoint x="730" y="820" as="sourcePoint" />
          </mxGeometry>
        </mxCell>
        <mxCell id="QC7sre-XqN9Exx4dISkb-43" value="create&#xa;    factory - callback" style="swimlane;align=left;startSize=40;" vertex="1" parent="1">
          <mxGeometry x="640" y="1050" width="180" height="100" as="geometry" />
        </mxCell>
        <mxCell id="QC7sre-XqN9Exx4dISkb-45" style="edgeStyle=orthogonalEdgeStyle;rounded=0;orthogonalLoop=1;jettySize=auto;html=1;strokeColor=#C7C7C7;fontSize=10;" edge="1" parent="1" target="QC7sre-XqN9Exx4dISkb-43">
          <mxGeometry relative="1" as="geometry">
            <mxPoint x="730" y="1010" as="sourcePoint" />
            <mxPoint x="739.9999999999998" y="870" as="targetPoint" />
          </mxGeometry>
        </mxCell>
        <mxCell id="QC7sre-XqN9Exx4dISkb-46" value="" style="endArrow=classic;html=1;strokeColor=#C7C7C7;fontSize=10;exitX=0.5;exitY=1;exitDx=0;exitDy=0;entryX=0.5;entryY=0;entryDx=0;entryDy=0;" edge="1" parent="1" source="rxVHNWmWw3qq-OFvizci-33" target="rxVHNWmWw3qq-OFvizci-36">
          <mxGeometry width="50" height="50" relative="1" as="geometry">
            <mxPoint x="472.5" y="1750" as="sourcePoint" />
            <mxPoint x="475" y="1780" as="targetPoint" />
          </mxGeometry>
        </mxCell>
        <mxCell id="QC7sre-XqN9Exx4dISkb-47" value="build&#xa;    doBuild - callback" style="swimlane;align=left;startSize=40;" vertex="1" parent="1">
          <mxGeometry x="910" y="1810" width="170" height="112" as="geometry" />
        </mxCell>
        <mxCell id="QC7sre-XqN9Exx4dISkb-48" value="this.parser.parse" style="text;html=1;align=left;verticalAlign=middle;resizable=0;points=[];autosize=1;fontSize=10;" vertex="1" parent="QC7sre-XqN9Exx4dISkb-47">
          <mxGeometry x="10" y="50" width="90" height="20" as="geometry" />
        </mxCell>
        <mxCell id="QC7sre-XqN9Exx4dISkb-49" style="edgeStyle=orthogonalEdgeStyle;rounded=0;orthogonalLoop=1;jettySize=auto;html=1;exitX=0.5;exitY=1;exitDx=0;exitDy=0;strokeColor=#C7C7C7;fontSize=10;entryX=0.5;entryY=0;entryDx=0;entryDy=0;" edge="1" parent="1" source="rxVHNWmWw3qq-OFvizci-38" target="QC7sre-XqN9Exx4dISkb-47">
          <mxGeometry relative="1" as="geometry">
            <mxPoint x="1005" y="1627" as="sourcePoint" />
            <mxPoint x="1005" y="1667" as="targetPoint" />
            <Array as="points">
              <mxPoint x="995" y="1790" />
              <mxPoint x="995" y="1790" />
            </Array>
          </mxGeometry>
        </mxCell>
        <mxCell id="QC7sre-XqN9Exx4dISkb-50" style="edgeStyle=orthogonalEdgeStyle;rounded=0;orthogonalLoop=1;jettySize=auto;html=1;exitX=0.5;exitY=1;exitDx=0;exitDy=0;strokeColor=#C7C7C7;fontSize=10;entryX=0.5;entryY=0;entryDx=0;entryDy=0;" edge="1" parent="1" source="QC7sre-XqN9Exx4dISkb-47" target="QC7sre-XqN9Exx4dISkb-3">
          <mxGeometry relative="1" as="geometry">
            <mxPoint x="1005" y="1780" as="sourcePoint" />
            <mxPoint x="1005" y="1820" as="targetPoint" />
            <Array as="points">
              <mxPoint x="995" y="1950" />
              <mxPoint x="1255" y="1950" />
            </Array>
          </mxGeometry>
        </mxCell>
        <mxCell id="QC7sre-XqN9Exx4dISkb-51" value="生成ast" style="text;html=1;align=left;verticalAlign=middle;resizable=0;points=[];autosize=1;fontSize=10;" vertex="1" parent="1">
          <mxGeometry x="1340" y="2000" width="50" height="20" as="geometry" />
        </mxCell>
        <mxCell id="QC7sre-XqN9Exx4dISkb-52" value="detectMode" style="swimlane;align=left;startSize=30;" vertex="1" parent="1">
          <mxGeometry x="1440" y="2100" width="170" height="70" as="geometry" />
        </mxCell>
        <mxCell id="QC7sre-XqN9Exx4dISkb-54" value="探测文件模式，是否strict模式，是否asm" style="text;html=1;align=left;verticalAlign=middle;resizable=0;points=[];autosize=1;fontSize=10;" vertex="1" parent="1">
          <mxGeometry x="1610" y="2130" width="200" height="20" as="geometry" />
        </mxCell>
        <mxCell id="QC7sre-XqN9Exx4dISkb-55" value="prewalkStatements" style="swimlane;align=left;startSize=30;" vertex="1" parent="1">
          <mxGeometry x="1440" y="2200" width="170" height="70" as="geometry" />
        </mxCell>
        <mxCell id="QC7sre-XqN9Exx4dISkb-56" value="针对传入的ast.body数组，逐条处理,&lt;br&gt;现在有四条，两条import，一条function，一条表达式" style="text;html=1;align=left;verticalAlign=middle;resizable=0;points=[];autosize=1;fontSize=10;" vertex="1" parent="1">
          <mxGeometry x="1610" y="2225" width="250" height="30" as="geometry" />
        </mxCell>
        <mxCell id="QC7sre-XqN9Exx4dISkb-68" style="edgeStyle=orthogonalEdgeStyle;rounded=0;orthogonalLoop=1;jettySize=auto;html=1;exitX=0.5;exitY=1;exitDx=0;exitDy=0;entryX=0.5;entryY=0;entryDx=0;entryDy=0;strokeColor=#C7C7C7;fontSize=10;" edge="1" parent="1" source="QC7sre-XqN9Exx4dISkb-57" target="QC7sre-XqN9Exx4dISkb-65">
          <mxGeometry relative="1" as="geometry" />
        </mxCell>
        <mxCell id="QC7sre-XqN9Exx4dISkb-57" value="prewalkImportDeclaration" style="swimlane;align=left;startSize=30;" vertex="1" parent="1">
          <mxGeometry x="1800" y="2307.5" width="170" height="92.5" as="geometry" />
        </mxCell>
        <mxCell id="QC7sre-XqN9Exx4dISkb-59" value="(hook)import&lt;br&gt;(hook)importSpecifier" style="text;html=1;align=left;verticalAlign=middle;resizable=0;points=[];autosize=1;fontSize=10;" vertex="1" parent="QC7sre-XqN9Exx4dISkb-57">
          <mxGeometry y="40" width="110" height="30" as="geometry" />
        </mxCell>
        <mxCell id="QC7sre-XqN9Exx4dISkb-58" value="处理import语句,将import的文件保存到parser.state.module.dependencies" style="text;html=1;align=left;verticalAlign=middle;resizable=0;points=[];autosize=1;fontSize=10;" vertex="1" parent="1">
          <mxGeometry x="1970" y="2350" width="340" height="20" as="geometry" />
        </mxCell>
        <mxCell id="QC7sre-XqN9Exx4dISkb-60" style="edgeStyle=orthogonalEdgeStyle;rounded=0;orthogonalLoop=1;jettySize=auto;html=1;exitX=1;exitY=0.5;exitDx=0;exitDy=0;strokeColor=#C7C7C7;fontSize=10;entryX=0.5;entryY=0;entryDx=0;entryDy=0;" edge="1" parent="1" source="QC7sre-XqN9Exx4dISkb-3" target="QC7sre-XqN9Exx4dISkb-52">
          <mxGeometry relative="1" as="geometry">
            <mxPoint x="1005" y="1931.9999999999995" as="sourcePoint" />
            <mxPoint x="1265" y="1979.9999999999995" as="targetPoint" />
            <Array as="points">
              <mxPoint x="1340" y="2040" />
            </Array>
          </mxGeometry>
        </mxCell>
        <mxCell id="QC7sre-XqN9Exx4dISkb-62" style="edgeStyle=orthogonalEdgeStyle;rounded=0;orthogonalLoop=1;jettySize=auto;html=1;strokeColor=#C7C7C7;fontSize=10;entryX=0.5;entryY=0;entryDx=0;entryDy=0;" edge="1" parent="1" target="QC7sre-XqN9Exx4dISkb-55">
          <mxGeometry relative="1" as="geometry">
            <mxPoint x="1525" y="2170" as="sourcePoint" />
            <mxPoint x="1535" y="2110" as="targetPoint" />
            <Array as="points">
              <mxPoint x="1525" y="2170" />
            </Array>
          </mxGeometry>
        </mxCell>
        <mxCell id="QC7sre-XqN9Exx4dISkb-63" value="" style="endArrow=classic;html=1;strokeColor=#C7C7C7;fontSize=10;entryX=0.5;entryY=0;entryDx=0;entryDy=0;exitX=0.5;exitY=1;exitDx=0;exitDy=0;" edge="1" parent="1" source="QC7sre-XqN9Exx4dISkb-55" target="QC7sre-XqN9Exx4dISkb-57">
          <mxGeometry width="50" height="50" relative="1" as="geometry">
            <mxPoint x="1260" y="2510" as="sourcePoint" />
            <mxPoint x="1310" y="2460" as="targetPoint" />
            <Array as="points">
              <mxPoint x="1525" y="2290" />
              <mxPoint x="1885" y="2290" />
            </Array>
          </mxGeometry>
        </mxCell>
        <mxCell id="QC7sre-XqN9Exx4dISkb-64" value="处理import语句,将specifier保存到parser.state.harmonySpecifier" style="text;html=1;align=left;verticalAlign=middle;resizable=0;points=[];autosize=1;fontSize=10;" vertex="1" parent="1">
          <mxGeometry x="1970" y="2370" width="300" height="20" as="geometry" />
        </mxCell>
        <mxCell id="QC7sre-XqN9Exx4dISkb-70" style="edgeStyle=orthogonalEdgeStyle;rounded=0;orthogonalLoop=1;jettySize=auto;html=1;exitX=0.5;exitY=1;exitDx=0;exitDy=0;entryX=0.5;entryY=0;entryDx=0;entryDy=0;strokeColor=#C7C7C7;fontSize=10;" edge="1" parent="1" source="QC7sre-XqN9Exx4dISkb-65" target="QC7sre-XqN9Exx4dISkb-71">
          <mxGeometry relative="1" as="geometry">
            <mxPoint x="1885" y="2570" as="targetPoint" />
          </mxGeometry>
        </mxCell>
        <mxCell id="QC7sre-XqN9Exx4dISkb-65" value="prewalkFunctionDeclaration" style="swimlane;align=left;startSize=30;" vertex="1" parent="1">
          <mxGeometry x="1800" y="2450" width="170" height="70" as="geometry" />
        </mxCell>
        <mxCell id="QC7sre-XqN9Exx4dISkb-74" style="edgeStyle=orthogonalEdgeStyle;rounded=0;orthogonalLoop=1;jettySize=auto;html=1;exitX=0.5;exitY=1;exitDx=0;exitDy=0;entryX=0.5;entryY=0;entryDx=0;entryDy=0;strokeColor=#C7C7C7;fontSize=10;" edge="1" parent="1" source="QC7sre-XqN9Exx4dISkb-71" target="QC7sre-XqN9Exx4dISkb-73">
          <mxGeometry relative="1" as="geometry" />
        </mxCell>
        <mxCell id="QC7sre-XqN9Exx4dISkb-71" value="blockPrewalkStatements" style="swimlane;align=left;startSize=30;" vertex="1" parent="1">
          <mxGeometry x="1440" y="2580" width="170" height="70" as="geometry" />
        </mxCell>
        <mxCell id="QC7sre-XqN9Exx4dISkb-72" value="逐条处理&lt;br&gt;此处没有" style="text;html=1;align=left;verticalAlign=middle;resizable=0;points=[];autosize=1;fontSize=10;" vertex="1" parent="1">
          <mxGeometry x="1610" y="2610" width="60" height="30" as="geometry" />
        </mxCell>
        <mxCell id="QC7sre-XqN9Exx4dISkb-77" style="edgeStyle=orthogonalEdgeStyle;rounded=0;orthogonalLoop=1;jettySize=auto;html=1;entryX=0.5;entryY=0;entryDx=0;entryDy=0;strokeColor=#C7C7C7;fontSize=10;exitX=0.5;exitY=1;exitDx=0;exitDy=0;" edge="1" parent="1" source="QC7sre-XqN9Exx4dISkb-73" target="QC7sre-XqN9Exx4dISkb-76">
          <mxGeometry relative="1" as="geometry" />
        </mxCell>
        <mxCell id="QC7sre-XqN9Exx4dISkb-73" value="walkStatements" style="swimlane;align=left;startSize=30;" vertex="1" parent="1">
          <mxGeometry x="1440" y="2720" width="170" height="70" as="geometry" />
        </mxCell>
        <mxCell id="QC7sre-XqN9Exx4dISkb-75" value="逐条处理" style="text;html=1;align=left;verticalAlign=middle;resizable=0;points=[];autosize=1;fontSize=10;" vertex="1" parent="1">
          <mxGeometry x="1610" y="2750" width="60" height="20" as="geometry" />
        </mxCell>
        <mxCell id="QC7sre-XqN9Exx4dISkb-81" style="edgeStyle=orthogonalEdgeStyle;rounded=0;orthogonalLoop=1;jettySize=auto;html=1;exitX=0.5;exitY=1;exitDx=0;exitDy=0;entryX=0.5;entryY=0;entryDx=0;entryDy=0;strokeColor=#C7C7C7;fontSize=10;" edge="1" parent="1" source="QC7sre-XqN9Exx4dISkb-76" target="QC7sre-XqN9Exx4dISkb-79">
          <mxGeometry relative="1" as="geometry">
            <Array as="points">
              <mxPoint x="1885" y="2910" />
              <mxPoint x="2120" y="2910" />
            </Array>
          </mxGeometry>
        </mxCell>
        <mxCell id="QC7sre-XqN9Exx4dISkb-76" value="walkFunctionDeclaration" style="swimlane;align=left;startSize=30;" vertex="1" parent="1">
          <mxGeometry x="1800" y="2830" width="170" height="70" as="geometry" />
        </mxCell>
        <mxCell id="QC7sre-XqN9Exx4dISkb-78" value="inFunctionScope" style="text;html=1;align=left;verticalAlign=middle;resizable=0;points=[];autosize=1;fontSize=10;" vertex="1" parent="QC7sre-XqN9Exx4dISkb-76">
          <mxGeometry y="40" width="90" height="20" as="geometry" />
        </mxCell>
        <mxCell id="QC7sre-XqN9Exx4dISkb-87" style="edgeStyle=orthogonalEdgeStyle;rounded=0;orthogonalLoop=1;jettySize=auto;html=1;exitX=0.5;exitY=1;exitDx=0;exitDy=0;entryX=0.5;entryY=0;entryDx=0;entryDy=0;strokeColor=#C7C7C7;fontSize=10;" edge="1" parent="1" source="QC7sre-XqN9Exx4dISkb-79" target="QC7sre-XqN9Exx4dISkb-82">
          <mxGeometry relative="1" as="geometry">
            <Array as="points">
              <mxPoint x="2120" y="3020" />
              <mxPoint x="1885" y="3020" />
            </Array>
          </mxGeometry>
        </mxCell>
        <mxCell id="QC7sre-XqN9Exx4dISkb-79" value="inFunctionScope" style="swimlane;align=left;startSize=30;" vertex="1" parent="1">
          <mxGeometry x="2035" y="2930" width="170" height="70" as="geometry" />
        </mxCell>
        <mxCell id="QC7sre-XqN9Exx4dISkb-80" value="enterPatterns" style="text;html=1;align=left;verticalAlign=middle;resizable=0;points=[];autosize=1;fontSize=10;" vertex="1" parent="QC7sre-XqN9Exx4dISkb-79">
          <mxGeometry y="40" width="80" height="20" as="geometry" />
        </mxCell>
        <mxCell id="QC7sre-XqN9Exx4dISkb-90" style="edgeStyle=orthogonalEdgeStyle;rounded=0;orthogonalLoop=1;jettySize=auto;html=1;exitX=0.5;exitY=1;exitDx=0;exitDy=0;entryX=0.5;entryY=0;entryDx=0;entryDy=0;strokeColor=#C7C7C7;fontSize=10;" edge="1" parent="1" source="QC7sre-XqN9Exx4dISkb-82" target="QC7sre-XqN9Exx4dISkb-88">
          <mxGeometry relative="1" as="geometry" />
        </mxCell>
        <mxCell id="QC7sre-XqN9Exx4dISkb-82" value="walkFunctionDeclaration&#xa;    inFunctionScope - callback" style="swimlane;align=left;startSize=40;" vertex="1" parent="1">
          <mxGeometry x="1800" y="3030" width="170" height="80" as="geometry" />
        </mxCell>
        <mxCell id="QC7sre-XqN9Exx4dISkb-83" value="inFunctionScope" style="text;html=1;align=left;verticalAlign=middle;resizable=0;points=[];autosize=1;fontSize=10;" vertex="1" parent="QC7sre-XqN9Exx4dISkb-82">
          <mxGeometry y="47" width="90" height="20" as="geometry" />
        </mxCell>
        <mxCell id="QC7sre-XqN9Exx4dISkb-85" value="逐条处理函数代码块，处理流程同上类似" style="text;html=1;align=left;verticalAlign=middle;resizable=0;points=[];autosize=1;fontSize=10;" vertex="1" parent="1">
          <mxGeometry x="1970" y="3080" width="200" height="20" as="geometry" />
        </mxCell>
        <mxCell id="QC7sre-XqN9Exx4dISkb-93" style="edgeStyle=orthogonalEdgeStyle;rounded=0;orthogonalLoop=1;jettySize=auto;html=1;entryX=0.5;entryY=0;entryDx=0;entryDy=0;strokeColor=#C7C7C7;fontSize=10;exitX=0.5;exitY=1;exitDx=0;exitDy=0;" edge="1" parent="1" source="QC7sre-XqN9Exx4dISkb-88" target="QC7sre-XqN9Exx4dISkb-91">
          <mxGeometry relative="1" as="geometry">
            <Array as="points">
              <mxPoint x="1885" y="3260" />
              <mxPoint x="2125" y="3260" />
            </Array>
          </mxGeometry>
        </mxCell>
        <mxCell id="QC7sre-XqN9Exx4dISkb-88" value="walkExpressionStatement" style="swimlane;align=left;startSize=30;" vertex="1" parent="1">
          <mxGeometry x="1800" y="3170" width="170" height="70" as="geometry" />
        </mxCell>
        <mxCell id="QC7sre-XqN9Exx4dISkb-89" value="walkExpression" style="text;html=1;align=center;verticalAlign=middle;resizable=0;points=[];autosize=1;fontSize=10;" vertex="1" parent="QC7sre-XqN9Exx4dISkb-88">
          <mxGeometry y="40" width="80" height="20" as="geometry" />
        </mxCell>
        <mxCell id="QC7sre-XqN9Exx4dISkb-96" style="edgeStyle=orthogonalEdgeStyle;rounded=0;orthogonalLoop=1;jettySize=auto;html=1;exitX=0.5;exitY=1;exitDx=0;exitDy=0;entryX=0.516;entryY=-0.059;entryDx=0;entryDy=0;entryPerimeter=0;strokeColor=#C7C7C7;fontSize=10;" edge="1" parent="1" source="QC7sre-XqN9Exx4dISkb-91" target="QC7sre-XqN9Exx4dISkb-94">
          <mxGeometry relative="1" as="geometry" />
        </mxCell>
        <mxCell id="QC7sre-XqN9Exx4dISkb-91" value="walkExpression" style="swimlane;align=left;startSize=30;" vertex="1" parent="1">
          <mxGeometry x="2040" y="3280" width="170" height="70" as="geometry" />
        </mxCell>
        <mxCell id="QC7sre-XqN9Exx4dISkb-92" value="walkCallExpression" style="text;html=1;align=left;verticalAlign=middle;resizable=0;points=[];autosize=1;fontSize=10;" vertex="1" parent="QC7sre-XqN9Exx4dISkb-91">
          <mxGeometry y="40" width="100" height="20" as="geometry" />
        </mxCell>
        <mxCell id="QC7sre-XqN9Exx4dISkb-100" style="edgeStyle=orthogonalEdgeStyle;rounded=0;orthogonalLoop=1;jettySize=auto;html=1;strokeColor=#C7C7C7;fontSize=10;exitX=0.5;exitY=1;exitDx=0;exitDy=0;" edge="1" parent="1" source="QC7sre-XqN9Exx4dISkb-94" target="QC7sre-XqN9Exx4dISkb-98">
          <mxGeometry relative="1" as="geometry" />
        </mxCell>
        <mxCell id="QC7sre-XqN9Exx4dISkb-94" value="walkCallExpression" style="swimlane;align=left;startSize=30;" vertex="1" parent="1">
          <mxGeometry x="2040" y="3390" width="170" height="70" as="geometry" />
        </mxCell>
        <mxCell id="QC7sre-XqN9Exx4dISkb-97" value="evaluateExpression" style="text;html=1;align=left;verticalAlign=middle;resizable=0;points=[];autosize=1;fontSize=10;" vertex="1" parent="QC7sre-XqN9Exx4dISkb-94">
          <mxGeometry y="40" width="100" height="20" as="geometry" />
        </mxCell>
        <mxCell id="QC7sre-XqN9Exx4dISkb-103" style="edgeStyle=orthogonalEdgeStyle;rounded=0;orthogonalLoop=1;jettySize=auto;html=1;exitX=0.5;exitY=1;exitDx=0;exitDy=0;entryX=0.5;entryY=0;entryDx=0;entryDy=0;strokeColor=#C7C7C7;fontSize=10;" edge="1" parent="1" source="QC7sre-XqN9Exx4dISkb-98" target="QC7sre-XqN9Exx4dISkb-101">
          <mxGeometry relative="1" as="geometry" />
        </mxCell>
        <mxCell id="QC7sre-XqN9Exx4dISkb-98" value="parse" style="swimlane;align=left;startSize=30;" vertex="1" parent="1">
          <mxGeometry x="1170" y="3530" width="170" height="90" as="geometry" />
        </mxCell>
        <mxCell id="QC7sre-XqN9Exx4dISkb-107" style="edgeStyle=orthogonalEdgeStyle;rounded=0;orthogonalLoop=1;jettySize=auto;html=1;entryX=0.5;entryY=0;entryDx=0;entryDy=0;strokeColor=#C7C7C7;fontSize=10;exitX=0.5;exitY=1;exitDx=0;exitDy=0;" edge="1" parent="1" source="QC7sre-XqN9Exx4dISkb-101" target="QC7sre-XqN9Exx4dISkb-104">
          <mxGeometry relative="1" as="geometry" />
        </mxCell>
        <mxCell id="QC7sre-XqN9Exx4dISkb-101" value="build&#xa;    doBuild - callback" style="swimlane;align=left;startSize=40;" vertex="1" parent="1">
          <mxGeometry x="910" y="3688" width="170" height="92" as="geometry" />
        </mxCell>
        <mxCell id="QC7sre-XqN9Exx4dISkb-102" value="handleParseResult&lt;br&gt;&amp;nbsp; &amp;nbsp; _initBuildHash" style="text;html=1;align=left;verticalAlign=middle;resizable=0;points=[];autosize=1;fontSize=10;" vertex="1" parent="QC7sre-XqN9Exx4dISkb-101">
          <mxGeometry y="45" width="100" height="30" as="geometry" />
        </mxCell>
        <mxCell id="QC7sre-XqN9Exx4dISkb-110" style="edgeStyle=orthogonalEdgeStyle;rounded=0;orthogonalLoop=1;jettySize=auto;html=1;entryX=0.5;entryY=0;entryDx=0;entryDy=0;strokeColor=#C7C7C7;fontSize=10;" edge="1" parent="1" source="QC7sre-XqN9Exx4dISkb-104" target="QC7sre-XqN9Exx4dISkb-108">
          <mxGeometry relative="1" as="geometry" />
        </mxCell>
        <mxCell id="QC7sre-XqN9Exx4dISkb-104" value="buildModule&#xa;    module.build - callback" style="swimlane;align=left;startSize=40;" vertex="1" parent="1">
          <mxGeometry x="380" y="3860" width="170" height="100" as="geometry" />
        </mxCell>
        <mxCell id="QC7sre-XqN9Exx4dISkb-106" value="&lt;font color=&quot;#666666&quot;&gt;(hook)succeedModule&lt;/font&gt;" style="text;html=1;align=center;verticalAlign=middle;resizable=0;points=[];autosize=1;fontSize=10;" vertex="1" parent="QC7sre-XqN9Exx4dISkb-104">
          <mxGeometry y="50" width="110" height="20" as="geometry" />
        </mxCell>
        <mxCell id="QC7sre-XqN9Exx4dISkb-114" style="edgeStyle=orthogonalEdgeStyle;rounded=0;orthogonalLoop=1;jettySize=auto;html=1;entryX=0.5;entryY=0;entryDx=0;entryDy=0;strokeColor=#C7C7C7;fontSize=10;" edge="1" parent="1" source="QC7sre-XqN9Exx4dISkb-108" target="QC7sre-XqN9Exx4dISkb-111">
          <mxGeometry relative="1" as="geometry" />
        </mxCell>
        <mxCell id="QC7sre-XqN9Exx4dISkb-108" value="buildModule&#xa;    callback" style="swimlane;align=left;startSize=40;" vertex="1" parent="1">
          <mxGeometry x="380" y="4010" width="170" height="100" as="geometry" />
        </mxCell>
        <mxCell id="QC7sre-XqN9Exx4dISkb-109" value="&lt;font color=&quot;#666666&quot;&gt;(hook)succeedModule&lt;/font&gt;" style="text;html=1;align=center;verticalAlign=middle;resizable=0;points=[];autosize=1;fontSize=10;" vertex="1" parent="QC7sre-XqN9Exx4dISkb-108">
          <mxGeometry y="50" width="110" height="20" as="geometry" />
        </mxCell>
        <mxCell id="QC7sre-XqN9Exx4dISkb-117" style="edgeStyle=orthogonalEdgeStyle;rounded=0;orthogonalLoop=1;jettySize=auto;html=1;exitX=0.5;exitY=1;exitDx=0;exitDy=0;entryX=0.5;entryY=0;entryDx=0;entryDy=0;strokeColor=#C7C7C7;fontSize=10;" edge="1" parent="1" source="QC7sre-XqN9Exx4dISkb-111" target="QC7sre-XqN9Exx4dISkb-115">
          <mxGeometry relative="1" as="geometry" />
        </mxCell>
        <mxCell id="QC7sre-XqN9Exx4dISkb-111" value="_addModuleChain&#xa;    moduleFactory.create - callback&#xa;        buildModule - callback" style="swimlane;align=left;startSize=40;" vertex="1" parent="1">
          <mxGeometry x="380" y="4170" width="170" height="100" as="geometry" />
        </mxCell>
        <mxCell id="QC7sre-XqN9Exx4dISkb-113" value="afterBuild" style="text;html=1;align=center;verticalAlign=middle;resizable=0;points=[];autosize=1;fontSize=10;" vertex="1" parent="QC7sre-XqN9Exx4dISkb-111">
          <mxGeometry y="50" width="60" height="20" as="geometry" />
        </mxCell>
        <mxCell id="QC7sre-XqN9Exx4dISkb-115" value="_addModuleChain&#xa;    moduleFactory.create - callback&#xa;        afterBuild" style="swimlane;align=left;startSize=40;" vertex="1" parent="1">
          <mxGeometry x="380" y="4320" width="170" height="100" as="geometry" />
        </mxCell>
        <mxCell id="QC7sre-XqN9Exx4dISkb-116" value="processModuleDependencies" style="text;html=1;align=center;verticalAlign=middle;resizable=0;points=[];autosize=1;fontSize=10;" vertex="1" parent="QC7sre-XqN9Exx4dISkb-115">
          <mxGeometry y="50" width="150" height="20" as="geometry" />
        </mxCell>
      </root>
    </mxGraphModel>
  </diagram>
</mxfile>
